<svg width="16" height="24" viewBox="0 0 16 24" fill="none" xmlns="http://www.w3.org/2000/svg">
<path d="M9.184 23.8865C8.30933 23.8865 7.38133 23.7158 6.4 23.3745C5.44 23.0118 4.53333 22.4891 3.68 21.8065C2.82667 21.1025 2.13333 20.2278 1.6 19.1825C1.06667 18.1371 0.8 16.9211 0.8 15.5345C0.8 14.1691 1.06667 12.9745 1.6 11.9505C2.13333 10.9051 2.816 10.0411 3.648 9.35848C4.50133 8.67581 5.408 8.16381 6.368 7.82248C7.34933 7.45981 8.26667 7.27848 9.12 7.27848C9.93067 7.27848 10.6347 7.36381 11.232 7.53448C11.8293 7.70514 12.32 7.89714 12.704 8.11048C13.088 8.30248 13.3653 8.45181 13.536 8.55848C13.9627 8.81448 14.3573 9.11314 14.72 9.45448C15.104 9.77448 15.296 10.2118 15.296 10.7665C15.296 11.0438 15.2427 11.3318 15.136 11.6305C15.0293 11.9078 14.8587 12.2278 14.624 12.5905C13.856 13.7638 13.088 14.3505 12.32 14.3505C11.9787 14.3505 11.68 14.2971 11.424 14.1905C11.168 14.0625 10.9333 13.9238 10.72 13.7745C10.5067 13.6251 10.272 13.4971 10.016 13.3905C9.78133 13.2625 9.48267 13.1985 9.12 13.1985C8.69333 13.1985 8.29867 13.3051 7.936 13.5185C7.57333 13.7318 7.28533 14.0198 7.072 14.3825C6.85867 14.7238 6.752 15.1185 6.752 15.5665C6.752 16.0145 6.85867 16.4198 7.072 16.7825C7.28533 17.1451 7.56267 17.4331 7.904 17.6465C8.26667 17.8598 8.65067 17.9665 9.056 17.9665C9.35467 17.9665 9.6 17.9345 9.792 17.8705C10.0053 17.8065 10.1653 17.7425 10.272 17.6785C10.3787 17.5931 10.4427 17.5505 10.464 17.5505C10.7627 17.3798 11.04 17.2198 11.296 17.0705C11.5733 16.9211 11.8507 16.8465 12.128 16.8465C12.4907 16.8465 12.864 16.9851 13.248 17.2625C13.632 17.5185 14.0587 17.9451 14.528 18.5425C14.976 19.0971 15.2213 19.6198 15.264 20.1105C15.328 20.5798 15.2107 21.0278 14.912 21.4545C14.6133 21.8598 14.1547 22.2545 13.536 22.6385C13.472 22.6811 13.248 22.8091 12.864 23.0225C12.5013 23.2145 12.0107 23.4065 11.392 23.5985C10.7733 23.7905 10.0373 23.8865 9.184 23.8865ZM8.98325 1.55048L11.4473 0.462475C11.7246 0.355808 12.0553 0.259808 12.4393 0.174475C12.8233 0.0891425 13.2286 0.153143 13.6553 0.366476C14.0819 0.558476 14.4873 1.04914 14.8713 1.83848C15.2339 2.58514 15.3299 3.22514 15.1593 3.75848C14.9886 4.27048 14.5619 4.63314 13.8793 4.84648L9.75125 6.22248C9.68725 6.22248 9.58058 6.25448 9.43125 6.31848C9.30325 6.36114 9.15392 6.38247 8.98325 6.38247C8.81258 6.38247 8.65258 6.36114 8.50325 6.31848C8.35392 6.25448 8.25792 6.22248 8.21525 6.22248L4.08725 4.84648C3.42592 4.65448 3.00992 4.28114 2.83925 3.72647C2.66858 3.17181 2.75392 2.54248 3.09525 1.83848C3.47925 1.07048 3.85258 0.579809 4.21525 0.366476C4.59925 0.153143 4.96192 0.078476 5.30325 0.142475C5.64458 0.185143 5.94325 0.249142 6.19925 0.334475L8.98325 1.55048Z" fill="black"/>
</svg>
